# xmcd CD database file
#
# Track frame offsets:
#	150
#	13850
#	34980
#	51353
#	63815
#	75380
#	88183
#	102510
#	116763
#	130975
#
# Disc length: 1969 seconds
#
# Revision: 4
# Processed by: cddbd v1.5.2PL0 Copyright (c) Steve Scherf et al.
# Submitted via: CDex 1.51
#
DISCID=8507af0a
DTITLE=Various Artist - Today's Number One Country
DYEAR=1994
DGENRE=Country
TTITLE0=John Anderson - Money In The Bank
TTITLE1=Clint Black - We Tell Ourselves
TTITLE2=Lee Roy Parnell - What Kind Of Fool Do You Think I Am
TTITLE3=Lorrie Morgan - What Part Of No
TTITLE4=Larry Stewart - Alright Already
TTITLE5=Alabama - I'm In A Hurry (And Don't Know Why)
TTITLE6=Radney Foster - Just Call Me Lonesome
TTITLE7=Shenandoah - Rock My Baby
TTITLE8=Pam Tillis - Shake The Sugar Tree
TTITLE9=Restless Heart - When She Cries
EXTD=YEAR: 1994
EXTT0=
EXTT1=
EXTT2=
EXTT3=
EXTT4=
EXTT5=
EXTT6=
EXTT7=
EXTT8=
EXTT9=
PLAYORDER=
